<svg id="Capa_1" enable-background="new 0 0 512 512" height="512" viewBox="0 0 512 512" width="512" xmlns="http://www.w3.org/2000/svg"><g><path d="m480.346 180.438c-2.952-2.906-7.701-2.868-10.606.084-2.906 2.952-2.868 7.701.084 10.606 17.525 17.249 27.176 40.288 27.176 64.872 0 50.185-40.828 91.013-91.013 91.013h-142.487v-182.026h142.486c13.002 0 25.554 2.682 37.307 7.971 3.776 1.699 8.218.015 9.917-3.762 1.7-3.777.016-8.217-3.762-9.917-13.701-6.165-28.323-9.292-43.461-9.292-13.168 0-286.806 0-299.974 0-58.456 0-106.013 47.557-106.013 106.013 0 23.851 7.735 46.376 22.37 65.143 2.546 3.266 7.259 3.85 10.526 1.302 3.266-2.547 3.849-7.26 1.302-10.526-12.559-16.106-19.198-35.442-19.198-55.919 0-50.185 40.828-91.013 91.013-91.013h142.487v182.026h-142.487c-16.975 0-33.532-4.702-47.881-13.597-3.522-2.182-8.145-1.098-10.326 2.423-2.183 3.521-1.098 8.144 2.423 10.326 16.725 10.368 36.014 15.848 55.784 15.848h299.974c58.456 0 106.013-47.557 106.013-106.013 0-28.636-11.242-55.471-31.654-75.562z"/><path d="m39.589 248.5c-4.142 0-7.5 3.358-7.5 7.5s3.358 7.5 7.5 7.5h14.938c1.305 9.455 5.033 18.146 10.546 25.417l-10.576 10.576c-2.929 2.929-2.929 7.678 0 10.606 2.929 2.929 7.678 2.929 10.606 0l10.576-10.576c7.272 5.513 15.962 9.241 25.417 10.546v14.938c0 4.142 3.358 7.5 7.5 7.5s7.5-3.358 7.5-7.5v-14.937c9.456-1.305 18.146-5.033 25.418-10.546l10.575 10.575c2.929 2.929 7.678 2.929 10.606 0 2.929-2.929 2.929-7.678 0-10.606l-10.575-10.575c5.514-7.272 9.241-15.962 10.547-25.418h14.938c4.142 0 7.5-3.358 7.5-7.5s-3.358-7.5-7.5-7.5h-14.938c-1.305-9.456-5.033-18.146-10.547-25.418l10.576-10.575c2.929-2.929 2.929-7.677 0-10.606s-7.678-2.929-10.606 0l-10.576 10.575c-7.272-5.513-15.962-9.241-25.417-10.546v-14.938c0-4.142-3.358-7.5-7.5-7.5s-7.5 3.358-7.5 7.5v14.938c-9.455 1.306-18.145 5.033-25.417 10.546l-10.575-10.576c-2.929-2.93-7.678-2.929-10.606 0-2.929 2.929-2.929 7.678 0 10.606l10.576 10.575c-5.514 7.272-9.241 15.962-10.547 25.418h-14.939zm69.01-32.098c21.834 0 39.598 17.764 39.598 39.598s-17.764 39.598-39.598 39.598c-21.835 0-39.599-17.764-39.599-39.598s17.764-39.598 39.599-39.598z"/><path d="m391.518 194.558c-.05.017-.101.026-.15.044-22.856 8.563-40.017 29.893-42.291 55.568-3.468 38.36 26.925 71.383 65.28 71.383 27.879 0 52.087-17.711 61.397-42.564.018-.049.027-.1.044-.15 19.501-52.291-31.792-103.855-84.28-84.281zm22.838 111.995c-28.951 0-52.103-24.417-50.471-53.365.01-.187.03-.372.043-.558.989-14.628 8.291-27.715 19.132-36.286-3.477 40.576 30.508 74.419 70.953 70.954-9.48 11.981-24.12 19.255-39.657 19.255zm48.444-36.123c-4.67 1.392-9.506 2.108-14.427 2.108-27.875 0-50.553-22.678-50.553-50.553 0-4.922.716-9.758 2.108-14.428 38.551-11.506 74.289 24.617 62.872 62.873z"/></g></svg>